<svg id="Layer_1" data-name="Layer 1" xmlns="http://www.w3.org/2000/svg" viewBox="0 0 1080 1350"><defs><style>.cls-1{fill:#009245;}.cls-2{fill:#42210b;}.cls-3{fill:#ed1c24;}.cls-4{fill:#ef4d61;}</style></defs><path class="cls-1" d="M723.75,124.11c-3.14,32-33.53,144.89-82.76,194.12-38.21,38.2-77.9,46.22-109.46,30.26-.9-.45-1.79-.93-2.68-1.42l.87-2.29c7.52-19.63,27.94-64.19,68.7-99.3A12.06,12.06,0,0,0,582.9,227c-15.21,12.56-48.29,43.61-68.36,90a419.57,419.57,0,0,0-28-40.76c.79-23.66,12.86-49.42,38-74.53,49.23-49.23,162.17-79.62,194.12-82.76A4.66,4.66,0,0,1,723.75,124.11Z"/><path class="cls-2" d="M531.53,348.49c-.9-.45-1.79-.93-2.68-1.42l.87-2.29C530.33,346,530.93,347.24,531.53,348.49Z"/><path class="cls-2" d="M598.42,245.48c-40.76,35.11-61.18,79.67-68.7,99.3l-.87,2.29c.89.49,1.78,1,2.68,1.42a349.34,349.34,0,0,1,27.39,79.83q-8.35,6.51-16.16,13.68a257.83,257.83,0,0,0-27-21.68C507.34,395.85,473,307.51,394.32,239.77a20.63,20.63,0,0,1,26.54-31.59,438.43,438.43,0,0,1,65.71,68.13,419.57,419.57,0,0,1,28,40.76c20.07-46.44,53.15-77.49,68.36-90a12.06,12.06,0,0,1,15.52,18.46Z"/><path class="cls-3" d="M974.84,617.64a496.69,496.69,0,0,0-16.31-77.14C921.59,443.2,827.5,374,717.24,374a256.87,256.87,0,0,0-158.32,54.28q-8.35,6.51-16.16,13.68a257.66,257.66,0,0,0-174.48-68C258,374,163.93,443.2,127,540.5a494.39,494.39,0,0,0-16.31,77.14,497.8,497.8,0,0,0,172,444.53,258.29,258.29,0,0,0,260.06,22.9,258.29,258.29,0,0,0,260.06-22.9,501,501,0,0,0,62.84-63.71A495.74,495.74,0,0,0,979,682.23,502.35,502.35,0,0,0,974.84,617.64ZM261.31,524.45c-34.92,34.93-35.75,90.72-63.23,63.24S180.4,513.4,215.33,478.48s81.74-44.74,109.22-17.26S296.24,489.53,261.31,524.45Zm559.87,483c-43.46,43.45-93.31,64.06-115,42.35s35.23-35.23,78.68-78.69,57-100.39,78.68-78.68S864.63,964,821.18,1007.49Z"/><path class="cls-3" d="M324.55,461.22c27.48,27.48-28.31,28.31-63.24,63.23s-35.75,90.72-63.23,63.24S180.4,513.4,215.33,478.48,297.07,433.74,324.55,461.22Z"/><path class="cls-3" d="M821.18,1007.49c-43.46,43.45-93.31,64.06-115,42.35s35.23-35.23,78.68-78.69,57-100.39,78.68-78.68S864.63,964,821.18,1007.49Z"/><path class="cls-4" d="M261.31,524.45c-34.92,34.93-35.75,90.72-63.23,63.24S180.4,513.4,215.33,478.48s81.74-44.74,109.22-17.26S296.24,489.53,261.31,524.45Z"/><path class="cls-4" d="M821.18,1007.49c-43.46,43.45-93.31,64.06-115,42.35s35.23-35.23,78.68-78.69,57-100.39,78.68-78.68S864.63,964,821.18,1007.49Z"/></svg>