<svg id="Layer_1" data-name="Layer 1" xmlns="http://www.w3.org/2000/svg" viewBox="0 0 946.16 910.72"><defs><style>.cls-1,.cls-3{fill:none;stroke-linecap:round;stroke-linejoin:round;}.cls-1{stroke:#f74f4f;stroke-width:40px;}.cls-2{fill:red;}.cls-3{stroke:red;stroke-width:50px;}</style></defs><path d="M319,639.65q2.88-7.21,4-10.58a19.62,19.62,0,0,0,1.09-6c0-2.56-1.33-4.21-4-4.93s-7.49-1.08-14.54-1.08v-3.84h70.9q-8.16,19.95-20,48.91t-28.36,69.7Q311.52,772.56,310.68,775a14.9,14.9,0,0,0-.84,5,4.25,4.25,0,0,0,1,3.13,3.26,3.26,0,0,0,2.4,1q6.49,0,13.1-7.93a186.08,186.08,0,0,0,11.3-14.9q4.68-7,8.53-13.22l3.36,1.68Q336.52,771.12,327,781t-24.4,9.85q-13,0-21.39-8.65t-8.41-19.71a39.74,39.74,0,0,1,1.2-10.1A79.41,79.41,0,0,1,277.63,742Z" transform="translate(-87.55 -231.51)"/><path d="M470.39,719.68q0,27.17-23.19,49.16t-56.6,22A42.27,42.27,0,0,1,372.33,787q-8.18-3.84-17.43-13.7t-9.25-30q0-26.68,23-48.91t56.85-22.24a41.55,41.55,0,0,1,18.26,3.73A50.42,50.42,0,0,1,458.38,687a40.26,40.26,0,0,1,9.49,15.74A58,58,0,0,1,470.39,719.68Zm-33.17-35.33a9.15,9.15,0,0,0-1.8-6q-1.8-2.16-5.89-2.16-4.32,0-9.37,5.89t-14.54,24.76q-9.5,18.87-18.15,40.62t-8.65,30.64q0,4.57,1.92,6.85a7.09,7.09,0,0,0,5.77,2.29q4.08,0,8.65-5.29t13.34-22.12q8.78-16.82,18.75-41.22T437.22,684.35Z" transform="translate(-87.55 -231.51)"/><path d="M511.73,790.83q-16.1,0-27.64-7.69t-11.53-22.59a34.69,34.69,0,0,1,2.28-12.5q2.28-6,7.45-16.71t14.18-27.4q9-16.7,9-20.31a4.28,4.28,0,0,0-1-3.12,3.91,3.91,0,0,0-2.88-1c-1.92,0-4.33,1-7.21,3.12A64.86,64.86,0,0,0,484,693q-6.12,7.21-13.82,21.4L466.79,713q10.81-18.5,21.27-29.68t27.76-11.18q13.7,0,19.59,7.57t5.89,19.11a40.82,40.82,0,0,1-1.92,13.7q-1.93,5.29-7.46,16.83-6.72,12-12.86,24.64t-6.12,19.34c0,3.53.72,6.17,2.16,7.94s4,2.64,7.69,2.64q16.35,0,35.09-19.23t18.75-33.89q0-8.16-12.86-17.55t-12.86-21.63a18.5,18.5,0,0,1,5.77-13.94,18.87,18.87,0,0,1,13.46-5.53q11.05,0,16.23,6.73t5.16,18.27q0,31-23.55,62.37T511.73,790.83Z" transform="translate(-87.55 -231.51)"/><path d="M643,735.07A87.77,87.77,0,0,0,640.33,747a77.81,77.81,0,0,0-1.21,12.12q0,13.45,3.73,19t11,5.52a33.77,33.77,0,0,0,9.86-1.32,49.37,49.37,0,0,0,10.11-4.67,59.29,59.29,0,0,0,12.16-9.83A72.93,72.93,0,0,0,696.17,755l3.37,2.41a98.91,98.91,0,0,1-23.83,23.82q-13.73,9.62-33.22,9.62a57.44,57.44,0,0,1-33.29-10.7q-15.51-10.7-15.5-31.38,0-28.86,26.12-52.79t61.54-23.93q16.6,0,27.2,7.57t10.6,17.43q0,19-22.18,28.48T643,735.07Zm.71-2.89q16.81-1.9,30.53-18.78t13.7-29.8a12.54,12.54,0,0,0-1-5.5q-1-1.92-4.32-1.92-5.29,0-10.58,5.75a94,94,0,0,0-11.29,16q-6,10.29-10.22,18.79T643.69,732.18Z" transform="translate(-87.55 -231.51)"/><path class="cls-1" d="M780.17,762.12c-70.51,100.15-192.79,148.65-266.76,245.94" transform="translate(-87.55 -231.51)"/><path class="cls-1" d="M182.14,635.66A127.16,127.16,0,0,1,309.3,508.49" transform="translate(-87.55 -231.51)"/><path class="cls-2" d="M901.4,642.48c-1.07-68.4-25.06-128.94-67.55-170.48a210.47,210.47,0,0,0-96.39-56.63A217,217,0,0,0,631,414.28c-54.6,13.18-100.1,45.88-129,91.07a198.65,198.65,0,0,0-27.15-36,207.6,207.6,0,0,0-79.23-51.52A225.79,225.79,0,0,0,292,406a219,219,0,0,0-99,37.28C131,482.55,93.81,547.21,88.27,625.43,84.91,673,93.38,723,112.77,770s48.4,87.8,84,118.18c14.88,15.12,37.22,31.61,53.55,45.07a20.43,20.43,0,0,0,27.46-1.28l4.92-4.93a20.42,20.42,0,0,0-1.49-30.22c-15.67-12.9-37.21-28.68-51.09-42.85-.52-.53-1.06-1-1.62-1.51-61.15-51.8-98.33-141.67-92.53-223.62C139.06,584.34,156,523,219,483.41l1-.65c28.7-20.11,63.77-30.54,99.12-30.54a175.93,175.93,0,0,1,60.17,10.52c49.82,18.16,84.81,56.38,98.52,107.64a23.89,23.89,0,0,0,22.58,17.81h.52a23.87,23.87,0,0,0,22.83-16.89c17-55.45,61.26-96.79,118.46-110.6,57.92-14,116.86,2.77,157.66,44.79l.47.47c75.05,73.14,64.42,205.2,11.54,285.8C767.7,854.31,707.23,900.05,643.21,948.48c-52.13,39.43-105.8,80-150.14,130.75-34.86-44-87.19-84.74-131.14-117.61a20.42,20.42,0,0,0-26.67,1.91l-4.95,5a20.41,20.41,0,0,0,2.2,30.78c50.58,37.76,106.1,81.46,139.47,132.21a23.86,23.86,0,0,0,19.13,10.74l.82,0a23.88,23.88,0,0,0,19-9.43c43.64-57.39,100.68-100.55,161.08-146.23C736.25,938,802.66,887.75,851.09,819l.42-.61C884.18,768.73,902.36,704.63,901.4,642.48Z" transform="translate(-87.55 -231.51)"/><path d="M351.3,903.79a23.87,23.87,0,0,0-33.77,0L231.28,990l-19.15-19.15a31.36,31.36,0,0,0-52.47,14.06l-25.42,94.88a31.41,31.41,0,0,0,30.15,39.51,31.75,31.75,0,0,0,8.26-1.1l94.88-25.42a31.36,31.36,0,0,0,14.06-52.47l-16.53-16.54,86.24-86.24A23.87,23.87,0,0,0,351.3,903.79ZM165.21,1087.26l25-93.28,68.28,68.28Z" transform="translate(-87.55 -231.51)"/><path d="M1017.79,340.4H959.58l2.09-2.09a23.88,23.88,0,1,0-33.77-33.78l-.12.12V247.43a15.92,15.92,0,1,0-31.84,0v84.83a15.64,15.64,0,0,0,.47,3.77l-8.92,8.91V287.72a15.92,15.92,0,1,0-31.84,0v84.82a16.24,16.24,0,0,0,.47,3.78l-8.92,8.91V328a15.92,15.92,0,0,0-31.84,0v84.82a16.08,16.08,0,0,0,.47,3.77l-15,15a227.83,227.83,0,0,1,37.22,30.32l9.73-9.73a16,16,0,0,0,4.56.67h84.82a15.92,15.92,0,1,0,0-31.84H879l9.12-9.12a16,16,0,0,0,4.56.67H977.5a15.92,15.92,0,0,0,0-31.84H919.29l9.12-9.12a15.91,15.91,0,0,0,4.56.67h84.82a15.92,15.92,0,1,0,0-31.84Z" transform="translate(-87.55 -231.51)"/><path class="cls-3" d="M397.54,920.17a63.63,63.63,0,0,1-63.63-63.63" transform="translate(-87.55 -231.51)"/></svg>