<svg id="Layer_1" data-name="Layer 1" xmlns="http://www.w3.org/2000/svg" viewBox="0 0 486.12 1233.74"><path d="M243.06,237.09A114.72,114.72,0,1,1,357.78,122.38,114.84,114.84,0,0,1,243.06,237.09Zm0-189.43a74.72,74.72,0,1,0,74.72,74.72A74.8,74.8,0,0,0,243.06,47.66Z"/><path d="M308.72,1229.43a74.73,74.73,0,0,1-65.07-38,74.73,74.73,0,0,1-65.07,38h-1.11a74.77,74.77,0,0,1-74.69-74.68V733.47A60.78,60.78,0,0,1,6.24,684.3V372A124.31,124.31,0,0,1,121.3,247.94c1.84-.14,7.66-.35,9.37-.35H355.46c1.7,0,3.26,0,4.73.09s2.88.13,4.63.26A124.31,124.31,0,0,1,479.88,372V684.3a60.78,60.78,0,0,1-96.48,49.21v421.24A74.76,74.76,0,0,1,308.72,1229.43ZM243.65,705.1A30.42,30.42,0,0,1,274,735.49v419.26a34.68,34.68,0,1,0,69.36,0v-732a27.44,27.44,0,0,1,54.87,0V684.3a20.81,20.81,0,0,0,41.61,0V372a84.31,84.31,0,0,0-78-84.18c-1.19-.09-2.21-.14-3.11-.17h-.23c-.93,0-1.94-.06-3.1-.06H130.67c-1,0-5.38.17-6.38.24A84.3,84.3,0,0,0,46.24,372V684.3a20.81,20.81,0,0,0,41.61,0V422.77a27.47,27.47,0,0,1,54.93,0v732a34.72,34.72,0,0,0,34.69,34.68h1.11a34.72,34.72,0,0,0,34.69-34.68V735.49A30.42,30.42,0,0,1,243.65,705.1Z"/></svg>