<svg id="Layer_1" data-name="Layer 1" xmlns="http://www.w3.org/2000/svg" viewBox="0 0 370.72 443.96">
  <defs>
    <style>
      .cls-1 {
        fill: #f15a24;
      }

      .cls-2 {
        fill: #a67c52;
      }
    </style>
  </defs>
  <path class="cls-1" d="M297.43,120.07q.26-3.57.26-7.2a105,105,0,1,0-208.4,17.77,105,105,0,1,0,103.77,168.7A105,105,0,1,0,297.43,120.07Z"/>
  <path class="cls-2" d="M297.15,174.71l-39.06-20.47L281,126.71a2.17,2.17,0,0,0-2.67-3.31L208.53,160l-9.4-47.08c-1.4-7-11.39-7-12.79,0l-29,145.26-18.89-9.9-31.93-62.31a1.54,1.54,0,0,0-2.9.82l3.59,45.12-37.6-19.7a2.73,2.73,0,0,0-3.36,4.16l80.19,96.38-19.72,98.77A20.53,20.53,0,0,0,146.85,436h91.77a20.53,20.53,0,0,0,20.13-24.55L217.2,203.39l25.79-31,53.45,4.75A1.29,1.29,0,0,0,297.15,174.71Z"/>
</svg>
