<svg id="Layer_1" data-name="Layer 1" xmlns="http://www.w3.org/2000/svg" viewBox="0 0 1087.6 164.67"><defs><style>.cls-1{fill:#f2d16b;}.cls-2{fill:#f9db87;}</style></defs><polygon class="cls-1" points="587.04 157.09 587.17 157.16 498.48 157.16 498.55 157.12 498.61 157.09 587.04 157.09"/><path class="cls-1" d="M816.07,34.48c0-.22,0-.45,0-.67,0-16.14-13-29.33-28.83-29.4a55.21,55.21,0,0,1,29.34,6.8l259.18,142.88L813,59.59A124.91,124.91,0,0,0,816.07,34.48Z"/><path class="cls-1" d="M429.64,70.31l-147.5,53a125,125,0,0,0,39.77-88.87c0-.22,0-.44,0-.65,0-16.15-13-29.35-28.84-29.42a55.21,55.21,0,0,1,29.34,6.8Z"/><polygon class="cls-1" points="587.17 157.16 4.31 157.16 4.44 157.09 190.96 157.09 190.88 157.12 498.55 157.12 498.61 157.09 587.04 157.09 587.17 157.16"/><path class="cls-2" d="M321.92,33.83c0,.21,0,.43,0,.65a125,125,0,0,1-39.77,88.87l-93.83,33.74H4.44L269.07,11.21a55,55,0,0,1,24-6.8C308.9,4.48,321.92,17.68,321.92,33.83Z"/><path class="cls-2" d="M269.07,11.21,4.44,157.09H4.31l264.76-146a55.32,55.32,0,0,1,20.85-6.56,30.68,30.68,0,0,1,3.16-.16A55,55,0,0,0,269.07,11.21Z"/><path class="cls-2" d="M816.08,33.81c0,.22,0,.45,0,.67A124.91,124.91,0,0,1,813,59.59L729.77,29.66l33.47-18.45a55,55,0,0,1,24-6.8C803.06,4.48,816.08,17.67,816.08,33.81Z"/><path class="cls-2" d="M787.25,4.41a55,55,0,0,0-24,6.8L729.77,29.66l-.09,0,33.56-18.5a55.32,55.32,0,0,1,20.85-6.56A30.68,30.68,0,0,1,787.25,4.41Z"/><path class="cls-1" d="M1081.34,157.16H587.17l-.13-.07H501.49a150.85,150.85,0,0,0,60.61-13.75,151.87,151.87,0,0,0,65.15-57.16h0a.34.34,0,0,0,.07-.11,150.93,150.93,0,0,0,20.32-51.6l2.5-12.92A18.06,18.06,0,0,0,634.07.07a55.26,55.26,0,0,1,22.17,3.15l73.44,26.41.09,0L813,59.59l262.79,94.5Z"/><polygon class="cls-1" points="587.04 157.09 587.17 157.16 190.77 157.16 190.88 157.12 498.55 157.12 498.61 157.09 587.04 157.09"/><polygon class="cls-1" points="1084.31 157.16 1081.34 157.16 1075.77 154.09 1084.31 157.16"/><polygon class="cls-2" points="190.96 157.09 190.88 157.12 188.23 157.12 188.31 157.09 190.96 157.09"/><path class="cls-2" d="M650.14,21.54l-2.5,12.92a150.93,150.93,0,0,1-20.32,51.6.34.34,0,0,1-.07.11h0a151.87,151.87,0,0,1-65.15,57.16,150.85,150.85,0,0,1-60.61,13.75h-2.88l-.06,0H190.88l.08,0h-2.65l93.83-33.74,147.5-53L616.31,3.19A55.07,55.07,0,0,1,631.46,0a15.7,15.7,0,0,1,2.57,0h0A18.06,18.06,0,0,1,650.14,21.54Z"/><path class="cls-2" d="M501.49,157.09c-.84,0-1.69,0-2.54,0h-.4l.06,0Z"/></svg>