<svg id="Layer_1" data-name="Layer 1" xmlns="http://www.w3.org/2000/svg" viewBox="0 0 434.35 290.27"><defs><style>.cls-1{fill:#f2f2f2;}.cls-2{fill:#e6e6e6;}</style></defs><path class="cls-1" d="M431.61,234.09a54.73,54.73,0,0,1-54.73,54.73H90.31a88.56,88.56,0,0,1,0-177.11c1.34,0,2.67,0,4,.1A143.3,143.3,0,0,1,376,130a88.44,88.44,0,0,1,34.14,60.65A54.67,54.67,0,0,1,431.61,234.09Z"/><path class="cls-2" d="M431.61,234.09a54.73,54.73,0,0,1-54.73,54.73H90.31A88.54,88.54,0,0,1,1.76,200.27c0-2.15.08-4.29.23-6.4A88.55,88.55,0,0,0,90.31,276H376.88a54.75,54.75,0,0,0,54.36-48.32A56.23,56.23,0,0,1,431.61,234.09Z"/></svg>