<svg id="Layer_1" data-name="Layer 1" xmlns="http://www.w3.org/2000/svg" viewBox="0 0 315.16 178.64"><defs><style>.cls-1{fill:#f2f2f2;}.cls-2{fill:#e6e6e6;}</style></defs><path class="cls-1" d="M313.12,122.46a54.73,54.73,0,0,1-54.74,54.73h-202A54.73,54.73,0,0,1,52,67.91,87.75,87.75,0,0,1,212.45,44.56a66.49,66.49,0,0,1,42.29,23.29c1.2-.08,2.42-.12,3.64-.12A54.73,54.73,0,0,1,313.12,122.46Z"/><path class="cls-2" d="M313.12,122.46a54.73,54.73,0,0,1-54.74,54.73h-202A54.73,54.73,0,0,1,1.68,122.46c0-1.79.09-3.56.26-5.3a54.73,54.73,0,0,0,54.47,49.39h202a54.73,54.73,0,0,0,54.48-49.41C313,118.89,313.12,120.67,313.12,122.46Z"/></svg>