<svg id="Layer_1" data-name="Layer 1" xmlns="http://www.w3.org/2000/svg" viewBox="0 0 467.38 290.27"><defs><style>.cls-1{fill:#f2f2f2;}.cls-2{fill:#e6e6e6;}</style></defs><path class="cls-1" d="M465.05,234.07a54.73,54.73,0,0,1-54.73,54.73H56.69A54.74,54.74,0,0,1,36.88,183a88.57,88.57,0,0,1,86.87-71.34c1.34,0,2.67,0,4,.1A143.3,143.3,0,0,1,409.48,130a88.44,88.44,0,0,1,34.14,60.65A54.65,54.65,0,0,1,465.05,234.07Z"/><path class="cls-2" d="M465.05,234.09a54.73,54.73,0,0,1-54.73,54.73H56.69A54.73,54.73,0,0,1,2,234.09c0-1.75.08-3.48.24-5.18a54.74,54.74,0,0,0,54.49,49.57H410.32a54.74,54.74,0,0,0,54.49-49.55Q465.05,231.48,465.05,234.09Z"/></svg>