<svg id="Layer_1" data-name="Layer 1" xmlns="http://www.w3.org/2000/svg" viewBox="0 0 302.78 176.93"><defs><style>.cls-1{fill:#f2f2f2;}.cls-2{fill:#e6e6e6;}</style></defs><path class="cls-1" d="M300.41,141.24a34.24,34.24,0,0,1-34.25,34.25H36.56a34.25,34.25,0,0,1,0-68.5,33.14,33.14,0,0,1,3.75.21A49.4,49.4,0,0,1,83.53,76.78,84.35,84.35,0,0,1,251,90.5a49.49,49.49,0,0,1,11.42,16.7,33.14,33.14,0,0,1,3.75-.21A34.25,34.25,0,0,1,300.41,141.24Z"/><path class="cls-2" d="M300.41,141.24a34.24,34.24,0,0,1-34.25,34.25H36.56A34.25,34.25,0,0,1,2.31,141.24a35.57,35.57,0,0,1,.23-4,34.26,34.26,0,0,0,34,30.23h229.6a34.25,34.25,0,0,0,34-30.23A35.57,35.57,0,0,1,300.41,141.24Z"/></svg>